<svg xmlns="http://www.w3.org/2000/svg" width="169" height="32" viewBox="0 0 169 32" fill="none">
<path d="M11.9135 32L0 0H7.27495L15.4942 22.1353L11.9135 32Z" fill="url(#paint0_linear_2390_1124)"/>
<path d="M25.6381 25.3641L16.0638 0H23.3732L29.2775 15.6697L25.6381 25.3641Z" fill="url(#paint1_linear_2390_1124)"/>
<path d="M36.3595 12.938L31.5431 0H41.6099L36.3595 12.938Z" fill="url(#paint2_linear_2390_1124)"/>
<path d="M52.8105 9.84937H57.3403L60.0337 18.7928L63.0059 9.80406H66.6994L69.6785 18.7928L72.3755 9.84937H76.8111L71.6472 25.422H67.9119L64.8004 16.5343L61.7097 25.422H57.9779L52.8105 9.84937Z" fill="#0D0D0D"/>
<path d="M81.6561 18.5341V9.85202H86.0082V18.4434C86.0082 20.6776 87.1336 21.7336 88.8549 21.7336C90.5762 21.7336 91.7052 20.7194 91.7052 18.555V9.84156H96.0537V18.4225C96.0537 23.4136 93.2069 25.6024 88.8096 25.6024C84.4123 25.6024 81.6561 23.3683 81.6561 18.5341Z" fill="#0D0D0D"/>
<path d="M101.435 9.85406H108.752C111.118 9.85406 112.752 10.471 113.787 11.534C114.693 12.4158 115.156 13.6252 115.156 15.1309V15.1797C115.156 17.5428 113.898 19.1112 111.978 19.9268L115.665 25.3151H110.71L107.595 20.6308H105.717V25.3151H101.435V9.85406ZM108.546 17.2779C110.003 17.2779 110.842 16.5808 110.842 15.4446V15.3993C110.842 14.1829 109.957 13.566 108.522 13.566H105.717V17.2779H108.546Z" fill="#0D0D0D"/>
<path d="M119.603 23.0167L121.986 20.1657C123.393 21.3448 125.164 22.0011 127 22.0234C128.146 22.0234 128.767 21.6261 128.767 20.9778V20.9325C128.767 20.2912 128.258 19.9392 126.16 19.4512C122.871 18.7018 120.331 17.7747 120.331 14.5926V14.5508C120.331 11.6788 122.606 9.60156 126.314 9.60156C128.944 9.60156 130.997 10.2986 132.673 11.6544L130.533 14.6797C129.277 13.7472 127.769 13.2162 126.206 13.1566C125.16 13.1566 124.658 13.5993 124.658 14.15V14.1953C124.658 14.8923 125.188 15.213 127.331 15.6975C130.885 16.4712 133.094 17.6179 133.094 20.5142V20.5561C133.094 23.7173 130.599 25.5924 126.843 25.5924C124.108 25.5785 121.502 24.7176 119.603 23.0167Z" fill="#0D0D0D"/>
<path d="M141.568 13.6113H136.93V9.85406H150.488V13.6113H145.854V25.3151H141.568V13.6113Z" fill="#0D0D0D"/>
<path d="M158.29 9.73906H162.419L168.997 25.3117H164.405L163.279 22.5513H157.318L156.213 25.3117H151.708L158.29 9.73906ZM162.042 19.2158L160.321 14.8207L158.579 19.2158H162.042Z" fill="#0D0D0D"/>
<defs>
<linearGradient id="paint0_linear_2390_1124" x1="2.2171" y1="6.69824" x2="7.09721" y2="38.6094" gradientUnits="userSpaceOnUse">
<stop stop-color="#EF473A"/>
<stop offset="1" stop-color="#FF1C82"/>
</linearGradient>
<linearGradient id="paint1_linear_2390_1124" x1="2.2171" y1="6.69824" x2="7.09721" y2="38.6094" gradientUnits="userSpaceOnUse">
<stop stop-color="#EF473A"/>
<stop offset="1" stop-color="#FF1C82"/>
</linearGradient>
<linearGradient id="paint2_linear_2390_1124" x1="2.2171" y1="6.69824" x2="7.09721" y2="38.6094" gradientUnits="userSpaceOnUse">
<stop stop-color="#EF473A"/>
<stop offset="1" stop-color="#FF1C82"/>
</linearGradient>
</defs>
</svg>
